<svg xmlns="http://www.w3.org/2000/svg" version="1.1" xmlns:xlink="http://www.w3.org/1999/xlink" width="120" height="120" x="0" y="0" viewBox="0 0 5.625 5.625" style="enable-background:new 0 0 512 512" xml:space="preserve" class=""><g><path fill="#b0bec5" d="m5.144 2.774 -0.661 2.415c-0.071 0.26 -0.347 0.413 -0.615 0.34L0.523 4.612a0.57 0.57 0 0 1 -0.061 -0.021c-0.219 -0.089 -0.347 -0.318 -0.303 -0.546 0.001 -0.013 0.005 -0.026 0.008 -0.038L0.827 1.593c0.071 -0.26 0.347 -0.413 0.615 -0.34l3.346 0.915c0.268 0.073 0.428 0.345 0.356 0.605z" opacity="1" data-original="#b0bec5"/><path fill="#eceff1" d="M5.625 0.996v2.695c0 0.291 -0.237 0.527 -0.527 0.527H1.465a0.525 0.525 0 0 1 -0.525 -0.485C0.938 3.72 0.938 3.705 0.938 3.691V0.996C0.938 0.705 1.174 0.469 1.465 0.469h3.633C5.388 0.469 5.625 0.705 5.625 0.996z" opacity="1" data-original="#eceff1"/><path cx="9" cy="7" r="1.5" fill="#ffc107" opacity="1" data-original="#ffc107" d="M2.461 1.641A0.352 0.352 0 0 1 2.109 1.992A0.352 0.352 0 0 1 1.758 1.641A0.352 0.352 0 0 1 2.461 1.641z"/><path fill="#388e3c" d="M5.303 3.073v0.593c0 0.262 -0.181 0.475 -0.404 0.475H2.113a0.403 0.403 0 0 1 -0.052 -0.004l1.851 -2.173c0.122 -0.143 0.323 -0.143 0.446 0z" opacity="1" data-original="#388e3c"/><path fill="#4caf50" d="m3.781 3.983 -2.243 0.059a0.38 0.38 0 0 1 -0.381 -0.352l1.042 -0.866a0.3 0.3 0 0 1 0.422 0z" opacity="1" data-original="#4caf50"/><path d="M4.149 5.625c-0.044 0 -0.09 -0.006 -0.134 -0.017L0.39 4.637A0.532 0.532 0 0 1 0.017 3.991l0.398 -1.528a0.176 0.176 0 1 1 0.34 0.089l-0.398 1.528a0.179 0.179 0 0 0 0.125 0.217l3.622 0.97a0.175 0.175 0 0 0 0.214 -0.123l0.124 -0.499a0.176 0.176 0 0 1 0.341 0.084l-0.124 0.502A0.528 0.528 0 0 1 4.149 5.625z" fill="#000000" opacity="1" data-original="#000000"/><path d="M5.098 4.219H1.465A0.528 0.528 0 0 1 0.938 3.691V0.996A0.528 0.528 0 0 1 1.465 0.469h3.633A0.528 0.528 0 0 1 5.625 0.996v2.695A0.528 0.528 0 0 1 5.098 4.219zM1.465 0.82a0.176 0.176 0 0 0 -0.176 0.176v2.695c0 0.097 0.079 0.176 0.176 0.176h3.633a0.176 0.176 0 0 0 0.176 -0.176V0.996a0.176 0.176 0 0 0 -0.176 -0.176z" fill="#000000" opacity="1" data-original="#000000"/><path d="M2.109 2.109c-0.259 0 -0.469 -0.21 -0.469 -0.469s0.21 -0.469 0.469 -0.469 0.469 0.21 0.469 0.469 -0.21 0.469 -0.469 0.469zm0 -0.586a0.117 0.117 0 1 0 0 0.234 0.117 0.117 0 0 0 0 -0.234zM1.118 3.98a0.176 0.176 0 0 1 -0.124 -0.3l1.059 -1.059a0.411 0.411 0 0 1 0.581 0l0.283 0.283 0.87 -1.045a0.41 0.41 0 0 1 0.313 -0.148c0.13 -0.007 0.236 0.052 0.314 0.144l1.167 1.361a0.176 0.176 0 0 1 -0.267 0.229l-1.167 -1.362c-0.015 -0.019 -0.034 -0.018 -0.045 -0.021a0.059 0.059 0 0 0 -0.045 0.021l-0.994 1.193a0.175 0.175 0 0 1 -0.259 0.012l-0.42 -0.42c-0.03 -0.03 -0.054 -0.03 -0.084 0L1.242 3.928a0.174 0.174 0 0 1 -0.124 0.052z" fill="#000000" opacity="1" data-original="#000000"/></g></svg>